# xmcd
#
# Track frame offsets:
#	150
#	18616
#	31861
#	41581
#	53971
#	67028
#	83646
#	96573
#	110987
#	124253
#	138250
#	153487
#	164408
#	179518
#	192798
#	207024
#	217808
#	232356
#	246359
#	257966
#
# Disc length: 3642 seconds
#
# Revision: 1
# Processed by: cddbd v1.5.2PL0 Copyright (c) Steve Scherf et al.
# Submitted via: audiograbber 1.83.01
#
DISCID=2e0e3814
DTITLE=Reg Little and Minnie Currie - Memories
DYEAR=2014
DGENRE=Country
TTITLE0=Neon Moon
TTITLE1=Room Full Of Roses
TTITLE2=Big One
TTITLE3=The Fireman
TTITLE4=Crystal Chandeliers
TTITLE5=Adalida
TTITLE6=Love Bug
TTITLE7=Does Fort Worth Ever Cross Your Mind
TTITLE8=Following The Feeling
TTITLE9=Guitars And Cadillacs
TTITLE10=Twinkle Twinkle Lucky Star
TTITLE11=Blue Eyes Crying In The Rain
TTITLE12=Branded Man
TTITLE13=On The Other Hand
TTITLE14=It Must Be Love
TTITLE15=Blueberry Hill
TTITLE16=He Drinks Tequila
TTITLE17=Dont You Ever Get Tired Of Hurting Me
TTITLE18=Not Counting You
TTITLE19=Boot Scootin' Boogie
EXTD=
EXTT0=
EXTT1=
EXTT2=
EXTT3=
EXTT4=
EXTT5=
EXTT6=
EXTT7=
EXTT8=
EXTT9=
EXTT10=
EXTT11=
EXTT12=
EXTT13=
EXTT14=
EXTT15=
EXTT16=
EXTT17=
EXTT18=
EXTT19=
PLAYORDER=
